<svg width="16" height="17" viewBox="0 0 16 17" fill="none" xmlns="http://www.w3.org/2000/svg">
<g clip-path="url(#clip0_0_17)">
<path fill-rule="evenodd" clip-rule="evenodd" d="M14.75 8.36572C14.75 10.1559 14.0388 11.8728 12.773 13.1387C11.5071 14.4046 9.79021 15.1157 8 15.1157C6.20979 15.1157 4.4929 14.4046 3.22703 13.1387C1.96116 11.8728 1.25 10.1559 1.25 8.36572C1.25 6.57551 1.96116 4.85862 3.22703 3.59275C4.4929 2.32688 6.20979 1.61572 8 1.61572C9.79021 1.61572 11.5071 2.32688 12.773 3.59275C14.0388 4.85862 14.75 6.57551 14.75 8.36572ZM16 8.36572C16 10.4875 15.1571 12.5223 13.6569 14.0226C12.1566 15.5229 10.1217 16.3657 8 16.3657C5.87827 16.3657 3.84344 15.5229 2.34315 14.0226C0.842855 12.5223 0 10.4875 0 8.36572C0 6.24399 0.842855 4.20916 2.34315 2.70887C3.84344 1.20858 5.87827 0.365723 8 0.365723C10.1217 0.365723 12.1566 1.20858 13.6569 2.70887C15.1571 4.20916 16 6.24399 16 8.36572ZM7.47 5.89572L9.19 7.61572H4V9.11572H9.19L7.47 10.8357L8.53 11.8957L11.53 8.89572C11.6705 8.7551 11.7493 8.56447 11.7493 8.36572C11.7493 8.16697 11.6705 7.97635 11.53 7.83572L8.53 4.83572L7.47 5.89572Z" fill="#42424A"/>
</g>
<defs>
<clipPath id="clip0_0_17">
<rect width="16" height="16" fill="white" transform="translate(0 0.365723)"/>
</clipPath>
</defs>
</svg>
