<svg width="20" height="21" viewBox="0 0 20 21" fill="none" xmlns="http://www.w3.org/2000/svg">
<path d="M9.99536 2.91345C9.17815 2.91345 8.39441 3.23809 7.81655 3.81594C7.2387 4.3938 6.91406 5.17754 6.91406 5.99475C6.91406 6.81196 7.2387 7.5957 7.81655 8.17356C8.39441 8.75141 9.17815 9.07605 9.99536 9.07605C10.8126 9.07605 11.5963 8.75141 12.1742 8.17356C12.752 7.5957 13.0767 6.81196 13.0767 5.99475C13.0767 5.17754 12.752 4.3938 12.1742 3.81594C11.5963 3.23809 10.8126 2.91345 9.99536 2.91345ZM9.99536 7.99586C9.46446 7.99586 8.9553 7.78496 8.57989 7.40955C8.20448 7.03415 7.99358 6.52499 7.99358 5.99408C7.99358 5.46318 8.20448 4.95402 8.57989 4.57861C8.9553 4.20321 9.46446 3.99231 9.99536 3.99231C10.5263 3.99231 11.0354 4.20321 11.4108 4.57861C11.7862 4.95402 11.9971 5.46318 11.9971 5.99408C11.9971 6.52499 11.7862 7.03415 11.4108 7.40955C11.0354 7.78496 10.5263 7.99586 9.99536 7.99586Z" fill="black"/>
<path d="M13.1987 3.51848C13.5954 3.51848 13.917 3.19687 13.917 2.80013C13.917 2.4034 13.5954 2.08179 13.1987 2.08179C12.802 2.08179 12.4803 2.4034 12.4803 2.80013C12.4803 3.19687 12.802 3.51848 13.1987 3.51848Z" fill="black"/>
<g filter="url(#filter0_d_0_164)">
<path d="M15.6821 2.06975C15.5279 1.67138 15.2921 1.30961 14.99 1.00759C14.6879 0.705576 14.326 0.469972 13.9276 0.31586C13.4614 0.140842 12.9688 0.0462069 12.4709 0.0359839C11.8292 0.00799638 11.6259 0 9.99867 0C8.37139 0 8.16282 -6.70552e-08 7.52643 0.0359839C7.02891 0.0456842 6.53671 0.140339 6.07108 0.31586C5.67255 0.469792 5.31059 0.705333 5.00844 1.00737C4.70629 1.30941 4.47061 1.67127 4.31653 2.06975C4.14147 2.53595 4.04706 3.02854 4.03732 3.52643C4.00866 4.16748 4 4.37072 4 5.99867C4 7.62594 4 7.83318 4.03732 8.4709C4.04731 8.96935 4.14127 9.46113 4.31653 9.92825C4.47104 10.3266 4.70695 10.6883 5.00918 10.9903C5.3114 11.2923 5.6733 11.5279 6.07175 11.6821C6.5365 11.8642 7.0289 11.9656 7.52777 11.982C8.16948 12.01 8.37272 12.0187 10 12.0187C11.6273 12.0187 11.8359 12.0187 12.4722 11.982C12.9701 11.9719 13.4626 11.8775 13.9289 11.7028C14.3272 11.5483 14.689 11.3125 14.9911 11.0104C15.2932 10.7083 15.529 10.3466 15.6835 9.94825C15.8587 9.48179 15.9527 8.99 15.9627 8.49156C15.9913 7.85051 16 7.64727 16 6.01932C16 4.39138 16 4.18481 15.9627 3.54709C15.9549 3.04216 15.86 2.54237 15.6821 2.06975ZM14.8705 8.42159C14.8662 8.80562 14.7961 9.18608 14.6633 9.54642C14.5632 9.80555 14.41 10.0409 14.2135 10.2372C14.017 10.4336 13.7816 10.5867 13.5224 10.6866C13.1661 10.8188 12.7897 10.8889 12.4096 10.8938C11.7765 10.9231 11.598 10.9305 9.97468 10.9305C8.35007 10.9305 8.18414 10.9305 7.53909 10.8938C7.15921 10.8892 6.78298 10.8191 6.42692 10.6866C6.16683 10.5873 5.93048 10.4345 5.73316 10.2381C5.53584 10.0417 5.38194 9.80605 5.28143 9.54642C5.15045 9.18995 5.08039 8.81398 5.07419 8.43425C5.04554 7.8012 5.03887 7.62261 5.03887 5.99933C5.03887 4.37539 5.03887 4.20946 5.07419 3.56375C5.0785 3.17994 5.14859 2.7997 5.28143 2.43958C5.48467 1.91382 5.90116 1.5 6.42692 1.29876C6.78316 1.16691 7.15928 1.09682 7.53909 1.09151C8.17281 1.06286 8.35073 1.05486 9.97468 1.05486C11.5986 1.05486 11.7652 1.05486 12.4096 1.09151C12.7897 1.09609 13.1662 1.1662 13.5224 1.29876C13.7816 1.39889 14.017 1.55211 14.2134 1.74858C14.4099 1.94504 14.5631 2.18041 14.6633 2.43958C14.7942 2.79606 14.8643 3.17203 14.8705 3.55175C14.8992 4.18547 14.9065 4.36339 14.9065 5.98734C14.9065 7.61062 14.9065 7.78521 14.8778 8.42226L14.8705 8.42159Z" fill="black"/>
</g>
<defs>
<filter id="filter0_d_0_164" x="0" y="0" width="20" height="20.0187" filterUnits="userSpaceOnUse" color-interpolation-filters="sRGB">
<feFlood flood-opacity="0" result="BackgroundImageFix"/>
<feColorMatrix in="SourceAlpha" type="matrix" values="0 0 0 0 0 0 0 0 0 0 0 0 0 0 0 0 0 0 127 0" result="hardAlpha"/>
<feOffset dy="4"/>
<feGaussianBlur stdDeviation="2"/>
<feComposite in2="hardAlpha" operator="out"/>
<feColorMatrix type="matrix" values="0 0 0 0 0 0 0 0 0 0 0 0 0 0 0 0 0 0 0.25 0"/>
<feBlend mode="normal" in2="BackgroundImageFix" result="effect1_dropShadow_0_164"/>
<feBlend mode="normal" in="SourceGraphic" in2="effect1_dropShadow_0_164" result="shape"/>
</filter>
</defs>
</svg>
